<?xml version="1.0" standalone="no"?><!DOCTYPE svg PUBLIC "-//W3C//DTD SVG 1.1//EN" "http://www.w3.org/Graphics/SVG/1.1/DTD/svg11.dtd"><svg t="1534764911671" viewBox="0 0 1024 1024" version="1.1" xmlns="http://www.w3.org/2000/svg" p-id="1854" xmlns:xlink="http://www.w3.org/1999/xlink"><path d="M627.98933333 316.45866667l-7.552-7.616 72.96-71.232a31.168 31.168 0 0 0 0.512-43.968L571.28533333 68.01066667a31.168 31.168 0 0 0-43.968-0.512L452.75733333 140.26666667l-10.112-10.176a63.36 63.36 0 0 0-89.28-0.256L166.99733333 315.24266667a63.04 63.04 0 0 0-1.536 87.232C70.67733333 504.61866667 43.79733333 688.81066667 91.54133333 789.29066667l232.384-226.88 28.288 28.48a63.232 63.232 0 0 0 89.216 0.192l186.368-185.408a63.232 63.232 0 0 0 0.192-89.216zM942.61333333 787.43466667l-20.16-22.272-276.288-278.016-152.768 152.768 275.264 276.992 22.464 21.184c15.552 11.008 33.92 18.432 54.272 19.968a108.864 108.864 0 0 0 116.928-100.224 107.712 107.712 0 0 0-19.712-70.4z" p-id="1855"></path></svg>